<?xml version="1.0" encoding="UTF-8"?>
<svg id="Layer_1" data-name="Layer 1" xmlns="http://www.w3.org/2000/svg" viewBox="0 0 1080 1080">
  <defs>
    <style>
      .cls-1 {
        fill: #fff;
      }

      .cls-2 {
        fill: #31a8ff;
      }
    </style>
  </defs>
  <path class="cls-2" d="m660,339.42c.52,0,1.04,0,1.57.01,31.53.28,79.48,11.82,119.53,43.33,31.22,24.57,68.44,70.14,68.44,147.71s-37.29,126.2-68.58,152.79c-41.86,35.59-90.18,48.26-121.44,48.26-43.79,0-90.3-15.91-124.42-42.58-22.22-17.36-47.55-45.68-59.69-89.35l9.92-9.37c22.23,93.94,111.5,129.3,174.19,129.3,29.13,0,74.29-11.92,113.67-45.4,29.36-24.95,64.35-70.13,64.35-143.65,0-129.27-108-178.43-176.08-179.04-.47-.01-.95-.01-1.42-.01-61.04,0-99.37,31.57-105.88,37.24s-147.62,140.6-147.62,140.6l-165.54-168.97v291.08l-12-11.83v-308.64l177.83,181.51,139.26-132.63s40.73-39.83,113.91-40.36Z"/>
  <path class="cls-1" d="m485.16,548l6.26-5.98,86.44-82.77c29.4-27.54,49.39-34.54,81.26-34.54,62.04,0,112.55,50.5,112.55,112.57s-50.5,112.56-112.55,112.56c-63.96.28-116.68-55.67-112.35-119.46l-55.8,53.07c3.27,12.01,7.82,23.6,13.58,34.61,16.68,32.19,45.11,59.91,77.72,75.77,44.26,20.34,97.27,22.72,150.38-4.37,52.03-26.55,92.98-80.29,92.98-156.97,0-103.13-76.98-150.68-131.78-166.06-44.46-9.44-89,1.63-125.57,26.32-5.25,3.65-15.19,10.69-31.33,26.84-18.27,18.27-110.03,103.96-130.88,124.45l-155.07-158.94v276.12l56,55.33,2.8-191,98.45,95.77,76.91-73.32Z"/>
</svg>